<svg xmlns="http://www.w3.org/2000/svg" width="1200" height="630" viewBox="0 0 1200 630">
  <defs>
    <linearGradient id="bg" x1="0" y1="0" x2="1" y2="1">
      <stop offset="0%" stop-color="#fcf9f2"/>
      <stop offset="100%" stop-color="#f1ece0"/>
    </linearGradient>
    <linearGradient id="line" x1="0" y1="0" x2="1" y2="1">
      <stop offset="0%" stop-color="#9CB0A3"/>
      <stop offset="100%" stop-color="#E6AAC4"/>
    </linearGradient>
  </defs>
  <rect width="1200" height="630" fill="url(#bg)"/>
  <circle cx="180" cy="130" r="90" fill="#E6AAC433"/>
  <circle cx="1030" cy="120" r="110" fill="#9CB0A333"/>
  <circle cx="1070" cy="520" r="130" fill="#E6AAC422"/>
  <path d="M700 470c-48-94-12-220 62-286 69-59 169-57 211 29 30 61 3 137-54 177-41 28-95 33-132 8" fill="none" stroke="url(#line)" stroke-width="18" stroke-linecap="round"/>
  <path d="M648 432c44 40 100 62 157 62" fill="none" stroke="#9CB0A3" stroke-width="14" stroke-linecap="round"/>
  <text x="100" y="270" font-family="Quicksand, Nunito, sans-serif" font-size="78" font-weight="700" fill="#5f6f65">Rihea</text>
  <text x="100" y="345" font-family="Nunito, sans-serif" font-size="40" fill="#5f6f65">Your Emotional Sanctuary During Pregnancy</text>
  <text x="100" y="405" font-family="Nunito, sans-serif" font-size="30" fill="#6f7f74">Bridging Clinical Psychology with Warm Companionship</text>
</svg>
